<svg width="18" height="20" viewBox="0 0 18 20" fill="none" xmlns="http://www.w3.org/2000/svg">
<path d="M16 0H3C1.794 0 0 0.799 0 3V17C0 19.201 1.794 20 3 20H18V18H3.012C2.55 17.988 2 17.806 2 17C2 16.194 2.55 16.012 3.012 16H18V2C18 0.897 17.103 0 16 0ZM16 14H2V3C2 2.194 2.55 2.012 3 2H16V14Z" fill="white"/>
<path d="M7.652 10.4585C7.652 10.1465 7.67583 9.854 7.7235 9.581C7.7755 9.308 7.87083 9.048 8.0095 8.801C8.1265 8.567 8.263 8.3785 8.419 8.2355C8.57933 8.08817 8.75267 7.94517 8.939 7.8065C9.12967 7.6635 9.329 7.4815 9.537 7.2605C9.71033 7.06983 9.82517 6.877 9.8815 6.682C9.94217 6.487 9.9725 6.27683 9.9725 6.0515C9.9725 5.88683 9.953 5.733 9.914 5.59C9.875 5.447 9.81 5.3235 9.719 5.2195C9.58033 5.04617 9.40483 4.92483 9.1925 4.8555C8.98017 4.78183 8.75917 4.745 8.5295 4.745C8.3215 4.745 8.12217 4.77317 7.9315 4.8295C7.74517 4.88583 7.58917 4.9725 7.4635 5.0895C7.32917 5.20217 7.2295 5.343 7.1645 5.512C7.10383 5.67667 7.07567 5.8565 7.08 6.0515H5.65C5.68467 5.64417 5.78867 5.26283 5.962 4.9075C6.13533 4.55217 6.36933 4.264 6.664 4.043C6.91533 3.84367 7.20133 3.69633 7.522 3.601C7.84267 3.50133 8.16333 3.4515 8.484 3.4515C8.94333 3.4515 9.37667 3.523 9.784 3.666C10.1957 3.809 10.538 4.04083 10.811 4.3615C11.0103 4.58683 11.1598 4.84467 11.2595 5.135C11.3635 5.421 11.4155 5.71783 11.4155 6.0255C11.4155 6.43717 11.3267 6.8185 11.149 7.1695C10.9757 7.5205 10.7525 7.84117 10.4795 8.1315C10.3365 8.28317 10.1913 8.42183 10.044 8.5475C9.89667 8.66883 9.76017 8.788 9.6345 8.905C9.50883 9.022 9.40483 9.14983 9.3225 9.2885C9.2055 9.48783 9.13833 9.66767 9.121 9.828C9.10367 9.984 9.095 10.1942 9.095 10.4585H7.652ZM7.6585 13V11.427H9.095V13H7.6585Z" fill="white"/>
</svg>
